<?xml version="1.0" encoding="utf-8"?>
<!-- Generator: Adobe Illustrator 26.0.2, SVG Export Plug-In . SVG Version: 6.00 Build 0)  -->
<svg version="1.1" id="Слой_1" xmlns="http://www.w3.org/2000/svg" xmlns:xlink="http://www.w3.org/1999/xlink" x="0px" y="0px"
	 viewBox="0 0 900 180" style="enable-background:new 0 0 900 180;" xml:space="preserve">
<style type="text/css">
	.st0{fill:#B2B2B2;}
	.st1{fill:none;}
	.st2{stroke:#009FE3;stroke-width:1.3;stroke-miterlimit:10;}
</style>
<rect class="st0" width="900" height="180"/>
<g>
	<rect x="109.12" y="21.93" class="st1" width="681.76" height="68.07"/>
	<path class="st2" d="M139.33,24.38l24.32,21.29c2.28,1.99,3.92,2.98,4.93,2.98c1.69,0,2.54-1.81,2.54-5.42c0-4.1-0.24-6.9-0.73-8.4
		c-0.49-1.5-1.51-2.62-3.08-3.37c-1.27-0.62-2.17-1.28-2.69-1.98c-0.52-0.7-0.78-1.6-0.78-2.71c0-2.73,1.87-4.49,5.62-5.27
		c1.53-0.33,4.2-0.49,8.01-0.49c4.92,0,8.32,0.29,10.21,0.88c2.99,0.91,4.49,2.64,4.49,5.18c0,2.12-1.22,3.71-3.66,4.79
		c-0.98,0.42-1.64,0.8-2,1.12c-0.36,0.33-0.67,0.81-0.93,1.46c-0.88,2.15-1.33,6.22-1.37,12.21v15.92c0,2.44,0.02,5.78,0.05,10.01
		c0.03,5.73-0.31,9.86-1.03,12.4c-0.88,3.16-2.47,4.74-4.79,4.74c-1.01,0-1.88-0.21-2.61-0.63s-1.95-1.4-3.64-2.93l-28.96-25.93
		c-2.02-1.82-3.69-2.73-5.03-2.73c-1.99,0-2.98,2.75-2.98,8.25c0,4.52,0.25,7.62,0.76,9.28c0.5,1.66,1.54,2.88,3.1,3.66
		c2.18,1.07,3.27,2.47,3.27,4.2c0,4.52-4.87,6.79-14.6,6.79c-4.39,0-7.8-0.58-10.23-1.73c-2.43-1.16-3.64-2.79-3.64-4.91
		c0-1.11,0.23-1.94,0.68-2.49c0.46-0.55,1.48-1.3,3.08-2.25c1.53-0.91,2.46-2.52,2.78-4.83c0.55-4.2,0.83-10.24,0.83-18.12
		c0-8.4-0.49-14.52-1.46-18.36c-0.36-1.4-0.81-2.44-1.37-3.12c-0.55-0.68-1.46-1.33-2.73-1.95c-1.46-0.72-2.48-1.42-3.05-2.1
		c-0.57-0.68-0.85-1.51-0.85-2.49c0-3.12,2.69-5.09,8.06-5.91c1.82-0.26,5.01-0.39,9.57-0.39c2.6,0,4.5,0.2,5.69,0.61
		C136.3,22.02,137.7,22.94,139.33,24.38z"/>
	<path class="st2" d="M239.04,66.81h-22.95c-1.01,0-1.51,0.44-1.51,1.32c0,2.12,1.15,4.11,3.44,5.98c2.29,1.87,4.76,2.81,7.4,2.81
		c1.56,0,3.3-0.3,5.2-0.9c1.9-0.6,3.47-1.34,4.71-2.22c1.11-0.78,1.99-1.17,2.64-1.17c0.85,0,1.68,0.52,2.49,1.56
		c0.81,1.04,1.22,2.12,1.22,3.22c0,2.34-1.46,4.61-4.39,6.79C232.1,88.06,226.13,90,219.36,90c-6.84,0-12.57-1.99-17.19-5.96
		c-2.25-1.95-4.1-4.31-5.57-7.08c-1.92-3.68-2.88-7.55-2.88-11.62c0-5.47,1.66-10.38,4.98-14.75c2.86-3.78,6.51-6.59,10.94-8.45
		c3.32-1.4,6.92-2.1,10.79-2.1c6.18,0,11.44,1.76,15.77,5.27c2.18,1.76,3.94,3.84,5.27,6.25c1.53,2.73,2.29,5.4,2.29,8.01
		c0,2.12-0.44,3.85-1.32,5.2C241.58,66.13,240.44,66.81,239.04,66.81z M217.36,57.68h4.93c2.08,0,3.12-0.96,3.12-2.88
		c0-1.76-0.5-3.19-1.51-4.3c-1.01-1.11-2.33-1.66-3.96-1.66c-1.82,0-3.26,0.72-4.3,2.15c-0.98,1.33-1.46,2.69-1.46,4.05
		c0,0.98,0.24,1.66,0.71,2.05C215.36,57.48,216.19,57.68,217.36,57.68z"/>
	<path class="st2" d="M273.71,42.83V69.3c0,5.66,1.87,8.5,5.62,8.5c0.94,0,1.87-0.27,2.78-0.81c0.91-0.54,1.55-1.2,1.9-1.98
		c0.72-1.56,1.07-5.05,1.07-10.45c0-5.34-0.18-8.98-0.54-10.94c-0.13-0.81-0.36-1.41-0.68-1.78c-0.33-0.37-0.94-0.81-1.86-1.29
		c-1.86-0.98-2.78-2.21-2.78-3.71c0-2.02,1.59-3.42,4.79-4.2c6.05-1.5,12.03-2.25,17.92-2.25c3.29,0,4.93,1.74,4.93,5.22
		c0,0.36-0.02,1.09-0.05,2.2c-0.07,1.56-0.11,3.47-0.15,5.71v21.53c0,1.11,0.94,2.12,2.83,3.03c1.59,0.78,2.39,1.92,2.39,3.42
		c0,2.93-3.47,5.19-10.4,6.79c-4.07,0.94-8.01,1.42-11.82,1.42c-1.56,0-2.63-0.18-3.2-0.54c-0.57-0.36-0.9-1.06-1-2.1
		c-0.16-2.02-0.78-3.03-1.86-3.03c-0.39,0-0.75,0.09-1.07,0.27c-0.33,0.18-1.32,0.84-2.98,1.98c-3.29,2.25-6.82,3.37-10.6,3.37
		c-6.25,0-10.66-1.81-13.23-5.42c-2.18-3.03-3.27-8.12-3.27-15.28c0-2.67,0.02-4.95,0.05-6.84c0-1.11,0-1.86,0-2.25
		c0-2.8-0.25-4.86-0.76-6.18c-0.5-1.32-1.42-2.35-2.76-3.1c-1.27-0.65-2.08-1.17-2.42-1.56s-0.51-0.93-0.51-1.61
		c0-2.47,1.87-4.12,5.62-4.93c6.38-1.4,12.76-2.1,19.14-2.1C272.75,40.39,273.71,41.2,273.71,42.83z"/>
	<path class="st2" d="M337.52,40.34c1.73,0,2.77,0.24,3.15,0.73c0.37,0.49,0.71,2.05,1,4.69c0.16,1.43,0.67,2.15,1.51,2.15
		c0.65,0,1.27-0.47,1.86-1.42c2.6-4.07,6.01-6.1,10.21-6.1c2.96,0,5.39,0.96,7.28,2.88c0.91,0.94,1.66,2.16,2.25,3.64
		c0.59,1.48,0.88,2.91,0.88,4.27c0,1.53-0.36,3.1-1.07,4.71c-0.72,1.61-1.64,2.94-2.78,3.98c-2.08,1.99-4.64,2.98-7.67,2.98
		c-1.66,0-3.05-0.29-4.17-0.88s-2.6-1.77-4.42-3.56c-0.68-0.68-1.32-1.03-1.9-1.03c-0.91,0-1.51,0.51-1.78,1.54
		c-0.28,1.03-0.42,3.18-0.42,6.47c0,4.92,0.18,8.27,0.54,10.06c0.23,0.98,0.54,1.65,0.95,2.03c0.41,0.37,1.28,0.76,2.61,1.15
		c2.93,0.88,4.39,2.41,4.39,4.59c0,1.33-0.47,2.5-1.42,3.49c-0.94,0.99-2.2,1.65-3.76,1.98c-3.12,0.65-7.71,0.98-13.77,0.98
		c-5.76,0-10.14-0.5-13.13-1.51c-2.67-0.91-4-2.49-4-4.74c0-1.69,0.98-3.21,2.93-4.54c0.94-0.62,1.59-1.18,1.95-1.68
		c0.36-0.5,0.6-1.2,0.73-2.08c0.52-2.96,0.78-8.45,0.78-16.46c0-1.46-0.16-2.51-0.49-3.15c-0.33-0.63-0.98-1.15-1.95-1.54
		c-2.31-0.91-3.47-2.23-3.47-3.96c0-1.56,0.8-2.91,2.39-4.03c1.59-1.12,4.26-2.24,8.01-3.34C329.74,41.14,334.01,40.37,337.52,40.34
		z"/>
	<path class="st2" d="M397.14,40c5.96,0,11.18,1.55,15.67,4.64c3.22,2.21,5.81,5.09,7.76,8.64c2.02,3.71,3.03,7.58,3.03,11.62
		c0,7.06-3.24,13.07-9.72,18.02c-6.19,4.72-13.27,7.08-21.24,7.08c-7.78,0-14.08-2.21-18.9-6.64c-4.69-4.3-7.03-9.9-7.03-16.8
		c0-7.68,2.86-13.96,8.59-18.85C381.31,42.57,388.58,40,397.14,40z M393.24,51.28c-1.43,0-2.58,0.53-3.44,1.59
		c-0.86,1.06-1.29,2.47-1.29,4.22c0,1.95,0.37,4.61,1.1,7.98s1.6,6.36,2.61,8.96c1.01,2.67,2.65,4,4.93,4c2.9,0,4.35-1.84,4.35-5.52
		c0-2.73-0.37-5.84-1.1-9.33c-0.73-3.48-1.62-6.31-2.66-8.5C396.66,52.48,395.16,51.34,393.24,51.28z"/>
	<path class="st2" d="M467.5,21.01c3.65,0,7.36,0.33,11.13,0.98c3.09,0.52,5.31,1.24,6.64,2.15c1.33,0.91,2,2.17,2,3.76
		c0,1.01-0.24,1.8-0.73,2.37c-0.49,0.57-1.55,1.26-3.17,2.08c-1.89,0.98-2.97,2.12-3.25,3.44s-0.53,6.44-0.76,15.36
		c-0.1,8.63-0.19,13.8-0.27,15.53c-0.08,1.73-0.29,3.4-0.61,5.03c-0.94,4.75-2.85,8.48-5.71,11.18c-2.34,2.21-5.35,3.96-9.03,5.22
		s-7.55,1.9-11.62,1.9c-3.61,0-7.23-0.47-10.86-1.42c-3.63-0.94-6.78-2.25-9.45-3.91c-2.21-1.37-3.97-3.21-5.27-5.54
		c-1.3-2.33-1.95-4.81-1.95-7.45c0-3.25,1.03-5.95,3.08-8.08c2.05-2.13,4.62-3.2,7.71-3.2c3.03,0,5.6,0.9,7.71,2.69
		c2.12,1.82,3.17,4.07,3.17,6.74c0,0.68-0.2,1.82-0.59,3.42c-0.07,0.33-0.1,0.68-0.1,1.07c0,1.04,0.37,1.89,1.12,2.54
		c0.75,0.65,1.74,0.98,2.98,0.98c2.18,0,3.94-0.98,5.27-2.93s2-4.52,2-7.71l-0.05-4.44l-0.1-11.96c-0.29-7.26-0.51-11.53-0.66-12.82
		c-0.15-1.29-0.51-2.34-1.1-3.15c-0.49-0.65-0.92-1.07-1.29-1.27s-1.39-0.5-3.05-0.93c-0.78-0.16-1.45-0.62-2-1.37
		c-0.55-0.75-0.83-1.55-0.83-2.39c0-1.76,0.69-3.17,2.08-4.22c1.38-1.06,3.64-1.91,6.76-2.56C460.2,21.36,463.79,21.01,467.5,21.01z
		"/>
	<path class="st2" d="M520.04,40c5.96,0,11.18,1.55,15.67,4.64c3.22,2.21,5.81,5.09,7.76,8.64c2.02,3.71,3.03,7.58,3.03,11.62
		c0,7.06-3.24,13.07-9.72,18.02c-6.18,4.72-13.26,7.08-21.24,7.08c-7.78,0-14.08-2.21-18.9-6.64c-4.69-4.3-7.03-9.9-7.03-16.8
		c0-7.68,2.86-13.96,8.59-18.85C504.21,42.57,511.48,40,520.04,40z M516.14,51.28c-1.43,0-2.58,0.53-3.44,1.59
		c-0.86,1.06-1.29,2.47-1.29,4.22c0,1.95,0.37,4.61,1.1,7.98s1.6,6.36,2.61,8.96c1.01,2.67,2.65,4,4.93,4c2.9,0,4.35-1.84,4.35-5.52
		c0-2.73-0.37-5.84-1.1-9.33c-0.73-3.48-1.62-6.31-2.66-8.5C519.56,52.48,518.06,51.34,516.14,51.28z"/>
	<path class="st2" d="M572.83,40.34c1.72,0,2.78,0.24,3.15,0.73c0.37,0.49,0.71,2.05,1,4.69c0.16,1.43,0.67,2.15,1.51,2.15
		c0.65,0,1.27-0.47,1.86-1.42c2.6-4.07,6.01-6.1,10.21-6.1c2.96,0,5.39,0.96,7.28,2.88c0.91,0.94,1.66,2.16,2.25,3.64
		c0.59,1.48,0.88,2.91,0.88,4.27c0,1.53-0.36,3.1-1.07,4.71s-1.64,2.94-2.78,3.98c-2.08,1.99-4.64,2.98-7.67,2.98
		c-1.66,0-3.05-0.29-4.17-0.88s-2.6-1.77-4.42-3.56c-0.68-0.68-1.32-1.03-1.9-1.03c-0.91,0-1.51,0.51-1.78,1.54
		c-0.28,1.03-0.42,3.18-0.42,6.47c0,4.92,0.18,8.27,0.54,10.06c0.23,0.98,0.54,1.65,0.95,2.03c0.41,0.37,1.28,0.76,2.61,1.15
		c2.93,0.88,4.39,2.41,4.39,4.59c0,1.33-0.47,2.5-1.42,3.49c-0.94,0.99-2.2,1.65-3.76,1.98c-3.12,0.65-7.71,0.98-13.77,0.98
		c-5.76,0-10.14-0.5-13.13-1.51c-2.67-0.91-4-2.49-4-4.74c0-1.69,0.98-3.21,2.93-4.54c0.94-0.62,1.59-1.18,1.95-1.68
		c0.36-0.5,0.6-1.2,0.73-2.08c0.52-2.96,0.78-8.45,0.78-16.46c0-1.46-0.16-2.51-0.49-3.15s-0.98-1.15-1.95-1.54
		c-2.31-0.91-3.47-2.23-3.47-3.96c0-1.56,0.8-2.91,2.39-4.03s4.26-2.24,8.01-3.34C565.05,41.14,569.31,40.37,572.83,40.34z"/>
	<path class="st2" d="M659.59,25.94v44.58c0,2.54,0.11,4.17,0.32,4.88c0.21,0.72,0.81,1.42,1.78,2.1c1.17,0.81,1.96,1.53,2.37,2.15
		c0.41,0.62,0.61,1.37,0.61,2.25c0,2.6-2.62,4.59-7.86,5.96c-4.72,1.2-9.44,1.81-14.16,1.81c-1.04,0-1.72-0.15-2.03-0.46
		c-0.31-0.31-0.51-1.05-0.61-2.22c-0.16-1.66-0.75-2.49-1.76-2.49c-0.55,0-1.42,0.49-2.59,1.46c-3.32,2.7-7.02,4.05-11.08,4.05
		c-5.05,0-9.59-1.87-13.62-5.62c-2.38-2.25-4.3-4.83-5.76-7.76c-1.95-3.81-2.93-7.67-2.93-11.57c0-4.59,1.27-9.02,3.81-13.28
		c2.34-3.94,5.53-6.97,9.57-9.08c3.38-1.76,6.72-2.64,10.01-2.64c3.78,0,7.16,0.85,10.16,2.54c0.49,0.26,0.88,0.39,1.17,0.39
		c1.04,0,1.56-1.4,1.56-4.2c0-1.2-0.29-2.12-0.85-2.76c-0.57-0.63-1.59-1.18-3.05-1.64c-2.05-0.65-3.08-1.79-3.08-3.42
		c0-2.38,2.36-4.23,7.08-5.57c8.33-2.31,13.92-3.47,16.75-3.47C658.19,21.93,659.59,23.27,659.59,25.94z M633.08,50.5
		c-2.12,0-3.79,1.12-5.03,3.37c-1.66,3-2.49,6.93-2.49,11.82c0,4.43,0.8,7.76,2.39,10.01c1.14,1.63,2.69,2.44,4.64,2.44
		c2.12,0,3.65-1.23,4.61-3.69c0.96-2.46,1.44-6.42,1.44-11.89c0-5.01-0.57-8.35-1.71-10.01C636.06,51.25,634.77,50.56,633.08,50.5z"
		/>
	<path class="st2" d="M695.43,40c5.66,0,10.46,1.43,14.4,4.3c2.08,1.53,3.54,3.28,4.37,5.25c0.83,1.97,1.25,4.68,1.25,8.13
		l-0.1,7.28c0,5.05,0.36,8.32,1.07,9.81c0.36,0.72,0.7,1.17,1.03,1.37c0.33,0.2,1.01,0.37,2.05,0.54c1.04,0.16,1.56,0.85,1.56,2.05
		c0,1.56-0.63,3.19-1.88,4.88c-1.25,1.69-2.87,3.11-4.86,4.25c-2.44,1.43-5,2.15-7.67,2.15c-3.42,0-6.12-1.17-8.11-3.52
		c-0.68-0.85-1.32-1.27-1.9-1.27c-0.65,0-1.51,0.41-2.59,1.22c-3.26,2.38-6.95,3.56-11.08,3.56c-4.26,0-7.71-0.91-10.35-2.73
		c-1.73-1.2-3.09-2.77-4.1-4.71c-1.01-1.94-1.51-3.96-1.51-6.08c0-3.39,1.37-6.38,4.1-8.98c4.26-4.1,10.64-6.17,19.14-6.2
		c1.89,0,3.08-0.19,3.56-0.56c0.49-0.37,0.73-1.25,0.73-2.61c0-3.45-0.36-5.95-1.07-7.5c-0.72-1.55-1.89-2.32-3.52-2.32
		c-0.98,0-1.85,0.29-2.61,0.88c-0.77,0.59-1.72,1.66-2.86,3.22c-2.9,4.13-5.92,6.2-9.08,6.2c-1.6,0-2.9-0.47-3.91-1.42
		c-1.01-0.94-1.51-2.18-1.51-3.71c0-1.56,0.63-3.12,1.88-4.69c1.25-1.56,2.95-2.93,5.1-4.1C682.87,41.56,689.02,40,695.43,40z
		 M692.16,68.27c-1.43,0-2.68,0.59-3.74,1.76c-1.06,1.17-1.59,2.57-1.59,4.2c0,1.56,0.37,2.82,1.12,3.78
		c0.75,0.96,1.74,1.44,2.98,1.44c2.6,0,3.91-2.2,3.91-6.59c0-1.79-0.19-2.99-0.56-3.61C693.91,68.63,693.2,68.3,692.16,68.27z"/>
	<path class="st2" d="M783.47,58.07l0.68,17.19c0.06,1.3,0.27,2.26,0.61,2.88c0.34,0.62,1.34,1.81,3,3.56
		c0.49,0.52,0.73,1.25,0.73,2.2c0,2.15-1.29,3.65-3.86,4.49c-2.57,0.85-7.16,1.27-13.77,1.27c-4.49,0-7.67-0.39-9.52-1.17
		c-1.92-0.81-2.88-2.13-2.88-3.96c0-0.65,0.1-1.13,0.29-1.44c0.2-0.31,0.85-1.07,1.95-2.27c1.3-1.37,1.95-5.92,1.95-13.67
		c0-4.49-0.52-7.81-1.56-9.96c-0.85-1.73-2.41-2.59-4.69-2.59c-2.18,0-3.68,0.7-4.49,2.1c-0.81,1.4-1.22,3.94-1.22,7.62v9.67
		c0,1.92,0.12,3.24,0.37,3.96c0.24,0.72,1.05,2.1,2.42,4.15c0.36,0.59,0.54,1.25,0.54,2c0,1.92-1.33,3.34-4,4.25
		c-2.67,0.91-6.84,1.37-12.5,1.37c-9.05,0-13.57-1.87-13.57-5.62c0-0.78,0.14-1.38,0.42-1.78c0.28-0.41,0.94-0.98,1.98-1.73
		c0.85-0.62,1.38-1.33,1.61-2.12c0.23-0.8,0.44-2.76,0.63-5.88c0.23-3.71,0.34-7.6,0.34-11.67c0-2.25-0.17-3.72-0.51-4.42
		c-0.34-0.7-1.33-1.55-2.95-2.56c-1.4-0.88-2.1-1.95-2.1-3.22c0-1.3,0.57-2.37,1.71-3.2c1.14-0.83,3.48-1.88,7.03-3.15
		c3.12-1.11,6.14-2.04,9.03-2.81c2.9-0.76,4.88-1.15,5.96-1.15c0.98,0,1.8,0.36,2.47,1.07c0.67,0.72,1,1.56,1,2.54
		c0,0.1-0.02,0.5-0.05,1.22c-0.03,0.26-0.05,0.49-0.05,0.68c0,1.56,0.65,2.34,1.95,2.34c0.78,0,1.61-0.62,2.49-1.86
		c2.8-4.04,6.87-6.05,12.21-6.05c4.1,0,7.62,1.07,10.55,3.22c2.05,1.53,3.48,3.33,4.3,5.4C782.77,51.03,783.28,54.06,783.47,58.07z"
		/>
</g>
<g>
</g>
<g>
</g>
<g>
</g>
<g>
</g>
<g>
</g>
<g>
</g>
</svg>
